<mxfile host="app.diagrams.net" modified="2023-10-12T20:48:41.431Z" agent="Mozilla/5.0 (Windows NT 10.0; Win64; x64) AppleWebKit/537.36 (KHTML, like Gecko) Chrome/117.0.0.0 Safari/537.36" etag="Sd7qKYMXHzjhwoKP-6Jj" version="21.3.7" type="github">
  <diagram name="Страница 1" id="6cj-dm2TCupNIVutivOo">
    <mxGraphModel dx="1017" dy="1114" grid="1" gridSize="10" guides="1" tooltips="1" connect="1" arrows="1" fold="1" page="1" pageScale="1" pageWidth="827" pageHeight="1169" math="0" shadow="0">
      <root>
        <mxCell id="0" />
        <mxCell id="1" parent="0" />
        <mxCell id="ab2Kzsvk-i5Xff6N2FPf-1" style="edgeStyle=orthogonalEdgeStyle;comic=0;html=1;entryX=0.25;entryY=0;shadow=0;startArrow=none;startFill=0;jettySize=auto;orthogonalLoop=1;strokeColor=#d6b656;strokeWidth=1;fontSize=14;fontColor=#000000;fillColor=#fff2cc;rounded=1;" edge="1" parent="1" source="ab2Kzsvk-i5Xff6N2FPf-23" target="ab2Kzsvk-i5Xff6N2FPf-11">
          <mxGeometry relative="1" as="geometry" />
        </mxCell>
        <mxCell id="ab2Kzsvk-i5Xff6N2FPf-2" value="a = torch.tensor(2.0)&lt;br style=&quot;font-size: 24px&quot;&gt;" style="text;html=1;strokeColor=none;fillColor=none;align=right;verticalAlign=top;whiteSpace=wrap;rounded=0;fontSize=24;spacing=2;fontColor=#000000;" vertex="1" parent="1">
          <mxGeometry x="20" y="40" width="260" height="40" as="geometry" />
        </mxCell>
        <mxCell id="ab2Kzsvk-i5Xff6N2FPf-3" value="c = a * b&lt;br style=&quot;font-size: 24px&quot;&gt;" style="text;html=1;strokeColor=none;fillColor=none;align=right;verticalAlign=top;whiteSpace=wrap;rounded=0;fontSize=24;spacing=2;fontColor=#000000;" vertex="1" parent="1">
          <mxGeometry x="20" y="400" width="260" height="40" as="geometry" />
        </mxCell>
        <mxCell id="ab2Kzsvk-i5Xff6N2FPf-4" value="" style="rounded=0;whiteSpace=wrap;html=1;fillColor=#fff2cc;strokeColor=#d6b656;glass=0;comic=0;shadow=0;strokeWidth=3;perimeterSpacing=4;" vertex="1" parent="1">
          <mxGeometry x="310" y="400" width="180" height="200" as="geometry" />
        </mxCell>
        <mxCell id="ab2Kzsvk-i5Xff6N2FPf-5" value="&lt;div style=&quot;text-align: justify ; font-size: 14px&quot;&gt;data = tensor(6.0)&lt;/div&gt;" style="rounded=0;whiteSpace=wrap;html=1;align=left;fontSize=14;fillColor=#ffffff;strokeColor=#BDBDBD;fontColor=#000000;perimeterSpacing=0;labelBorderColor=none;spacing=5;spacingLeft=0;" vertex="1" parent="1">
          <mxGeometry x="320" y="440" width="160" height="30" as="geometry" />
        </mxCell>
        <mxCell id="ab2Kzsvk-i5Xff6N2FPf-6" value="&lt;div style=&quot;text-align: justify ; font-size: 14px&quot;&gt;grad = &lt;font color=&quot;#9e9e9e&quot;&gt;None&lt;/font&gt;&lt;br&gt;&lt;/div&gt;" style="rounded=0;whiteSpace=wrap;html=1;align=left;fontSize=14;fillColor=#ffffff;strokeColor=#BDBDBD;perimeterSpacing=0;labelBorderColor=none;spacing=5;spacingLeft=0;" vertex="1" parent="1">
          <mxGeometry x="320" y="470" width="160" height="30" as="geometry" />
        </mxCell>
        <mxCell id="ab2Kzsvk-i5Xff6N2FPf-7" value="&lt;div style=&quot;text-align: center ; font-size: 24px&quot;&gt;c&lt;/div&gt;" style="rounded=1;whiteSpace=wrap;html=1;align=center;strokeColor=none;fontSize=24;fillColor=none;fontColor=#212121;" vertex="1" parent="1">
          <mxGeometry x="340" y="400" width="120" height="40" as="geometry" />
        </mxCell>
        <mxCell id="ab2Kzsvk-i5Xff6N2FPf-8" value="&lt;div style=&quot;text-align: justify ; font-size: 14px&quot;&gt;grad_fn = &lt;font color=&quot;#9e9e9e&quot;&gt;None&lt;/font&gt;&lt;br&gt;&lt;/div&gt;" style="rounded=0;whiteSpace=wrap;html=1;align=left;fontSize=14;verticalAlign=middle;fillColor=#ffffff;strokeColor=#BDBDBD;perimeterSpacing=0;labelBorderColor=none;spacing=5;spacingLeft=0;" vertex="1" parent="1">
          <mxGeometry x="320" y="500" width="160" height="30" as="geometry" />
        </mxCell>
        <mxCell id="ab2Kzsvk-i5Xff6N2FPf-9" value="&lt;div style=&quot;text-align: justify ; font-size: 14px&quot;&gt;is_leaf = &lt;font color=&quot;#00c853&quot;&gt;True&lt;/font&gt;&lt;br&gt;&lt;/div&gt;" style="rounded=0;whiteSpace=wrap;html=1;align=left;fontSize=14;verticalAlign=middle;fillColor=#ffffff;strokeColor=#BDBDBD;perimeterSpacing=0;labelBorderColor=none;spacing=5;spacingLeft=0;" vertex="1" parent="1">
          <mxGeometry x="320" y="530" width="160" height="30" as="geometry" />
        </mxCell>
        <mxCell id="ab2Kzsvk-i5Xff6N2FPf-10" style="edgeStyle=orthogonalEdgeStyle;comic=0;html=1;entryX=0.5;entryY=0;shadow=0;startArrow=none;startFill=0;jettySize=auto;orthogonalLoop=1;strokeColor=#d6b656;strokeWidth=1;fontSize=14;fontColor=#000000;fillColor=#fff2cc;rounded=1;" edge="1" parent="1" source="ab2Kzsvk-i5Xff6N2FPf-11" target="ab2Kzsvk-i5Xff6N2FPf-7">
          <mxGeometry relative="1" as="geometry" />
        </mxCell>
        <mxCell id="ab2Kzsvk-i5Xff6N2FPf-11" value="" style="rounded=1;whiteSpace=wrap;html=1;strokeColor=#d6b656;strokeWidth=1;fillColor=#fff2cc;fontSize=14;align=right;" vertex="1" parent="1">
          <mxGeometry x="460" y="280" width="80" height="80" as="geometry" />
        </mxCell>
        <mxCell id="ab2Kzsvk-i5Xff6N2FPf-12" value="Mul&lt;br&gt;" style="text;html=1;strokeColor=none;fillColor=none;align=center;verticalAlign=middle;whiteSpace=wrap;rounded=0;fontSize=14;" vertex="1" parent="1">
          <mxGeometry x="460" y="300" width="80" height="40" as="geometry" />
        </mxCell>
        <mxCell id="ab2Kzsvk-i5Xff6N2FPf-13" value="b = torch.tensor(3.0)&lt;br style=&quot;font-size: 24px&quot;&gt;" style="text;html=1;strokeColor=none;fillColor=none;align=right;verticalAlign=top;whiteSpace=wrap;rounded=0;fontSize=24;spacing=2;fontColor=#000000;" vertex="1" parent="1">
          <mxGeometry x="20" y="80" width="260" height="40" as="geometry" />
        </mxCell>
        <mxCell id="ab2Kzsvk-i5Xff6N2FPf-14" style="edgeStyle=orthogonalEdgeStyle;comic=0;html=1;entryX=0.75;entryY=0;shadow=0;startArrow=none;startFill=0;jettySize=auto;orthogonalLoop=1;strokeColor=#d6b656;strokeWidth=1;fontSize=14;fontColor=#000000;fillColor=#fff2cc;rounded=1;" edge="1" parent="1" source="ab2Kzsvk-i5Xff6N2FPf-15" target="ab2Kzsvk-i5Xff6N2FPf-11">
          <mxGeometry relative="1" as="geometry" />
        </mxCell>
        <mxCell id="ab2Kzsvk-i5Xff6N2FPf-15" value="" style="rounded=0;whiteSpace=wrap;html=1;fillColor=#fff2cc;strokeColor=#d6b656;glass=0;comic=0;shadow=0;strokeWidth=3;perimeterSpacing=4;" vertex="1" parent="1">
          <mxGeometry x="510" y="40" width="180" height="200" as="geometry" />
        </mxCell>
        <mxCell id="ab2Kzsvk-i5Xff6N2FPf-16" value="&lt;div style=&quot;text-align: justify ; font-size: 14px&quot;&gt;data = tensor(3.0)&lt;/div&gt;" style="rounded=0;whiteSpace=wrap;html=1;align=left;fontSize=14;fillColor=#ffffff;strokeColor=#BDBDBD;fontColor=#000000;perimeterSpacing=0;labelBorderColor=none;spacing=5;spacingLeft=0;" vertex="1" parent="1">
          <mxGeometry x="520" y="80" width="160" height="30" as="geometry" />
        </mxCell>
        <mxCell id="ab2Kzsvk-i5Xff6N2FPf-17" value="&lt;div style=&quot;text-align: justify ; font-size: 14px&quot;&gt;grad = &lt;font color=&quot;#9e9e9e&quot;&gt;None&lt;/font&gt;&lt;br&gt;&lt;/div&gt;" style="rounded=0;whiteSpace=wrap;html=1;align=left;fontSize=14;fillColor=#ffffff;strokeColor=#BDBDBD;perimeterSpacing=0;labelBorderColor=none;spacing=5;spacingLeft=0;" vertex="1" parent="1">
          <mxGeometry x="520" y="110" width="160" height="30" as="geometry" />
        </mxCell>
        <mxCell id="ab2Kzsvk-i5Xff6N2FPf-18" value="&lt;div style=&quot;text-align: center ; font-size: 24px&quot;&gt;b&lt;/div&gt;" style="rounded=1;whiteSpace=wrap;html=1;align=center;strokeColor=none;fontSize=24;fillColor=none;fontColor=#212121;" vertex="1" parent="1">
          <mxGeometry x="540" y="40" width="120" height="40" as="geometry" />
        </mxCell>
        <mxCell id="ab2Kzsvk-i5Xff6N2FPf-19" value="&lt;div style=&quot;text-align: justify ; font-size: 14px&quot;&gt;grad_fn = &lt;font color=&quot;#9e9e9e&quot;&gt;None&lt;/font&gt;&lt;br&gt;&lt;/div&gt;" style="rounded=0;whiteSpace=wrap;html=1;align=left;fontSize=14;verticalAlign=middle;fillColor=#ffffff;strokeColor=#BDBDBD;perimeterSpacing=0;labelBorderColor=none;spacing=5;spacingLeft=0;" vertex="1" parent="1">
          <mxGeometry x="520" y="140" width="160" height="30" as="geometry" />
        </mxCell>
        <mxCell id="ab2Kzsvk-i5Xff6N2FPf-20" value="&lt;div style=&quot;text-align: justify ; font-size: 14px&quot;&gt;is_leaf = &lt;font color=&quot;#00c853&quot;&gt;True&lt;/font&gt;&lt;br&gt;&lt;/div&gt;" style="rounded=0;whiteSpace=wrap;html=1;align=left;fontSize=14;verticalAlign=middle;fillColor=#ffffff;strokeColor=#BDBDBD;perimeterSpacing=0;labelBorderColor=none;spacing=5;spacingLeft=0;" vertex="1" parent="1">
          <mxGeometry x="520" y="170" width="160" height="30" as="geometry" />
        </mxCell>
        <mxCell id="ab2Kzsvk-i5Xff6N2FPf-21" value="&lt;div style=&quot;text-align: justify ; font-size: 14px&quot;&gt;&lt;span style=&quot;font-size: 14px&quot;&gt;requires_grad = &lt;font color=&quot;#f44336&quot;&gt;False&lt;/font&gt;&lt;/span&gt;&lt;/div&gt;" style="rounded=0;whiteSpace=wrap;html=1;align=left;fontSize=14;verticalAlign=middle;fillColor=#ffffff;strokeColor=#BDBDBD;perimeterSpacing=0;labelBorderColor=none;spacing=5;spacingLeft=0;" vertex="1" parent="1">
          <mxGeometry x="520" y="200" width="160" height="30" as="geometry" />
        </mxCell>
        <mxCell id="ab2Kzsvk-i5Xff6N2FPf-22" value="" style="group" vertex="1" connectable="0" parent="1">
          <mxGeometry x="310" y="40" width="180" height="200" as="geometry" />
        </mxCell>
        <mxCell id="ab2Kzsvk-i5Xff6N2FPf-23" value="" style="rounded=0;whiteSpace=wrap;html=1;fillColor=#fff2cc;strokeColor=#d6b656;glass=0;comic=0;shadow=0;strokeWidth=3;perimeterSpacing=4;" vertex="1" parent="ab2Kzsvk-i5Xff6N2FPf-22">
          <mxGeometry width="180" height="200" as="geometry" />
        </mxCell>
        <mxCell id="ab2Kzsvk-i5Xff6N2FPf-24" value="&lt;div style=&quot;text-align: center ; font-size: 24px&quot;&gt;a&lt;/div&gt;" style="rounded=1;whiteSpace=wrap;html=1;align=center;strokeColor=none;fontSize=24;fillColor=none;fontColor=#212121;" vertex="1" parent="ab2Kzsvk-i5Xff6N2FPf-22">
          <mxGeometry x="30" width="120" height="40" as="geometry" />
        </mxCell>
        <mxCell id="ab2Kzsvk-i5Xff6N2FPf-25" value="&lt;div style=&quot;text-align: justify ; font-size: 14px&quot;&gt;grad_fn = &lt;font color=&quot;#9e9e9e&quot;&gt;None&lt;/font&gt;&lt;br&gt;&lt;/div&gt;" style="rounded=0;whiteSpace=wrap;html=1;align=left;fontSize=14;verticalAlign=middle;fillColor=#ffffff;strokeColor=#BDBDBD;perimeterSpacing=0;labelBorderColor=none;spacing=5;spacingLeft=0;" vertex="1" parent="ab2Kzsvk-i5Xff6N2FPf-22">
          <mxGeometry x="10" y="100" width="160" height="30" as="geometry" />
        </mxCell>
        <mxCell id="ab2Kzsvk-i5Xff6N2FPf-26" value="&lt;div style=&quot;text-align: justify ; font-size: 14px&quot;&gt;is_leaf = &lt;font color=&quot;#00c853&quot;&gt;True&lt;/font&gt;&lt;br&gt;&lt;/div&gt;" style="rounded=0;whiteSpace=wrap;html=1;align=left;fontSize=14;verticalAlign=middle;fillColor=#ffffff;strokeColor=#BDBDBD;perimeterSpacing=0;labelBorderColor=none;spacing=5;spacingLeft=0;" vertex="1" parent="ab2Kzsvk-i5Xff6N2FPf-22">
          <mxGeometry x="10" y="130" width="160" height="30" as="geometry" />
        </mxCell>
        <mxCell id="ab2Kzsvk-i5Xff6N2FPf-27" value="&lt;div style=&quot;text-align: justify ; font-size: 14px&quot;&gt;&lt;span style=&quot;font-size: 14px&quot;&gt;requires_grad = &lt;font color=&quot;#f44336&quot;&gt;False&lt;/font&gt;&lt;/span&gt;&lt;/div&gt;" style="rounded=0;whiteSpace=wrap;html=1;align=left;fontSize=14;verticalAlign=middle;fillColor=#ffffff;strokeColor=#BDBDBD;perimeterSpacing=0;labelBorderColor=none;spacing=5;spacingLeft=0;" vertex="1" parent="ab2Kzsvk-i5Xff6N2FPf-22">
          <mxGeometry x="10" y="160" width="160" height="30" as="geometry" />
        </mxCell>
        <mxCell id="ab2Kzsvk-i5Xff6N2FPf-28" value="" style="group" vertex="1" connectable="0" parent="ab2Kzsvk-i5Xff6N2FPf-22">
          <mxGeometry x="10" y="40" width="160" height="60" as="geometry" />
        </mxCell>
        <mxCell id="ab2Kzsvk-i5Xff6N2FPf-29" value="&lt;div style=&quot;text-align: justify ; font-size: 14px&quot;&gt;data = tensor(2.0)&lt;/div&gt;" style="rounded=0;whiteSpace=wrap;html=1;align=left;fontSize=14;fillColor=#ffffff;strokeColor=#BDBDBD;fontColor=#000000;perimeterSpacing=0;labelBorderColor=none;spacing=5;spacingLeft=0;" vertex="1" parent="ab2Kzsvk-i5Xff6N2FPf-28">
          <mxGeometry width="160" height="30" as="geometry" />
        </mxCell>
        <mxCell id="ab2Kzsvk-i5Xff6N2FPf-30" value="&lt;div style=&quot;text-align: justify ; font-size: 14px&quot;&gt;grad = &lt;font color=&quot;#9e9e9e&quot;&gt;None&lt;/font&gt;&lt;br&gt;&lt;/div&gt;" style="rounded=0;whiteSpace=wrap;html=1;align=left;fontSize=14;fillColor=#ffffff;strokeColor=#BDBDBD;perimeterSpacing=0;labelBorderColor=none;spacing=5;spacingLeft=0;" vertex="1" parent="ab2Kzsvk-i5Xff6N2FPf-28">
          <mxGeometry y="30" width="160" height="30" as="geometry" />
        </mxCell>
        <mxCell id="ab2Kzsvk-i5Xff6N2FPf-31" value="&lt;div style=&quot;text-align: justify ; font-size: 14px&quot;&gt;&lt;span style=&quot;font-size: 14px&quot;&gt;requires_grad = &lt;font color=&quot;#f44336&quot;&gt;False&lt;/font&gt;&lt;/span&gt;&lt;/div&gt;" style="rounded=0;whiteSpace=wrap;html=1;align=left;fontSize=14;verticalAlign=middle;fillColor=#ffffff;strokeColor=#BDBDBD;perimeterSpacing=0;labelBorderColor=none;spacing=5;spacingLeft=0;" vertex="1" parent="1">
          <mxGeometry x="320" y="560" width="160" height="30" as="geometry" />
        </mxCell>
      </root>
    </mxGraphModel>
  </diagram>
</mxfile>
